<svg height="479pt" viewBox="-48 0 479 479.92055" width="479pt" xmlns="http://www.w3.org/2000/svg"><path d="m351.058594 268.160156-13.199219-9.039062c-2.429687 3.539062-4.984375 6.992187-7.65625 10.351562l12.511719 9.976563c2.914062-3.648438 5.695312-7.410157 8.34375-11.289063zm0 0"/><path d="m330.386719 26.320312-11.527344 11.199219c54.363281 56.160157 65.203125 141.433594 26.617187 209.410157l13.902344 7.910156c42.148438-74.160156 30.339844-167.234375-28.992187-228.519532zm0 0"/><path d="m31.757812 231.800781c-22.359374-50.132812-20.105468-107.8125 6.09375-156.046875l-14.046874-7.664062c-28.597657 52.621094-31.050782 115.5625-6.640626 170.253906zm0 0"/><path d="m168.460938 215.921875h16v-8h16v8h16v-8.410156c11.644531-1.621094 21.015624-10.382813 23.417968-21.894531 2.398438-11.507813-2.695312-23.285157-12.722656-29.425782 4.871094-6.703125 6.492188-15.230468 4.421875-23.25-2.070313-8.023437-7.613281-14.703125-15.117187-18.210937v-10.808594h-16v8h-16v-8h-16v8h-16v16h8v64h-8v16h16zm8-88h28c6.625 0 12 5.371094 12 12 0 6.625-5.375 12-12 12h-28zm36 64h-36v-24h36c6.625 0 12 5.371094 12 12 0 6.625-5.375 12-12 12zm0 0"/><path d="m248.460938 151.921875h16v16h-16zm0 0"/><path d="m120.460938 151.921875h16v16h-16zm0 0"/><path d="m9.1875 304.257812c-.6875 12.765626 3.777344 25.277344 12.394531 34.726563l50.878907 55.953125v4.984375h-8c-4.417969 0-8 3.582031-8 8v64c0 4.417969 3.582031 8 8 8h160c4.417968 0 8-3.582031 8-8v-64c0-4.417969-3.582032-8-8-8h-8v-32c-.03125-23.414063-16.921876-43.402344-40-47.335937v-1.601563c73.847656 7.375 143.0625-37.035156 167.132812-107.242187 24.070312-70.203126-3.332031-147.742188-66.171875-187.230469-62.835937-39.488281-144.585937-30.546875-197.402344 21.59375-52.816406 52.140625-62.804687 133.769531-24.128906 197.109375l-30.855469 27.761718c-9.53125 8.515626-15.242187 20.507813-15.847656 33.28125zm207.273438 159.664063h-144v-48h144zm-102.808594-224.5625c-21.308594-20.929687-33.277344-49.570313-33.191406-79.4375-.363282-47.277344 28.773437-89.769531 73.003906-106.46875 44.230468-16.695313 94.179687-4.058594 125.148437 31.664063 30.96875 35.722656 36.394531 86.957031 13.59375 128.375-22.804687 41.414062-69 64.230468-115.746093 57.164062v-22.734375c0-17.707031-14.351563-32.058594-32.058594-32.058594h-.078125c-14.332031.082031-26.863281 9.679688-30.671875 23.496094zm78.808594-223.4375c79.527343 0 144 64.46875 144 144 0 79.527344-64.472657 144-144 144-5.347657-.035156-10.691407-.371094-16-1.007813v-16.097656c52.796874 6.632813 104.183593-20.109375 129.054687-67.148437 24.867187-47.042969 18.023437-104.566407-17.1875-144.460938s-91.4375-53.832031-141.207031-35c-49.765625 18.832031-82.683594 66.503907-82.660156 119.714844-.089844 38.765625 17.546874 75.445313 47.878906 99.582031v19.929688c-52.675782-35.253906-76.085938-100.820313-57.648438-161.464844 18.441406-60.644531 74.382813-102.082031 137.769532-102.046875zm-156.730469 266.984375 29.289062-26.347656c12.84375 16.910156 28.929688 31.085937 47.320313 41.699218v29.664063h16v-80c.011718-8.839844 7.160156-16.011719 16-16.058594h.039062c8.875-.007812 16.078125 7.183594 16.082032 16.058594v80c0 4.417969 3.582031 8 8 8 17.671874 0 32 14.324219 32 32v32h-112v-8.082031c0-1.992188-.742188-3.910156-2.082032-5.382813l-52.957031-58.234375c-5.71875-6.308594-8.683594-14.636718-8.25-23.136718.433594-8.503907 4.234375-16.484376 10.558594-22.179688zm0 0"/><path d="m88.460938 431.921875h16v16h-16zm0 0"/></svg>