<svg height="511pt" viewBox="-13 1 511 511.99999" width="511pt" xmlns="http://www.w3.org/2000/svg"><path d="m52.832031 457.480469h118.792969v53.488281h-118.792969zm0 0" fill="#e63950"/><path d="m150.984375 457.480469h20.640625v53.488281h-20.640625zm0 0" fill="#cc2e43"/><path d="m.5625 226.210938c-.5195312 10.890624 2.148438 21.699218 7.675781 31.097656l62.984375 107.101562c7.746094 13.171875 3.433594 37.8125 3.226563 53.121094-.1875 13.707031-.371094 27.414062-.554688 41.117188l84.371094-.140626-.082031-41.554687c-.003906-6.113281 1.078125-12.179687 3.210937-17.910156 2.339844-6.289063 4.675781-12.570313 6.859375-18.894531 1.902344-5.507813 2.9375-11.304688 3.0625-17.128907.246094-11.402343-3.046875-22.757812-9.355468-32.261719 0 0 0-.003906-.003907-.007812-8.664062-13.058594-16.113281-26.890625-22.246093-41.3125l-37.910157-89.191406c-4.785156-11.257813-17.042969-17.046875-28.535156-14.050782l-6.875-118.753906c-.921875-15.933594-14.289063-28.621094-30.234375-27.96875-15.300781.625-27.265625 12.777344-27.980469 27.71875l-1.503906 31.402344zm0 0" fill="#fed2a4"/><path d="m171.316406 363.015625c-.121094 5.832031-1.160156 11.628906-3.0625 17.128906-2.179687 6.332031-4.523437 12.605469-6.859375 18.898438-2.125 5.734375-3.214843 11.800781-3.207031 17.910156l.082031 41.554687-84.375.144532v-.042969l57.367188-.101563-.082031-41.554687c0-6.109375 1.078124-12.175781 3.21875-17.910156 2.332031-6.292969 4.675781-12.566407 6.855468-18.898438 1.902344-5.5 2.941406-11.296875 3.0625-17.128906.597656-27.746094-18.585937-48.351563-29.84375-71.988281-11.679687-24.519532-20.160156-50.375-30.773437-75.339844-2.949219-6.949219-8.753907-11.816406-15.46875-13.816406-7.96875-2.378906-13.707031-9.332032-14.296875-17.628906l-8.324219-116.804688c-.6875-11.894531-8.316406-21.992188-18.785156-26.050781 2.902343-1.113281 6.035156-1.78125 9.328125-1.914063 15.945312-.65625 29.308594 12.03125 30.234375 27.964844l6.878906 118.765625c11.496094-3 23.75 2.789063 28.53125 14.046875l37.917969 89.1875c3.0625 7.214844 6.457031 14.28125 10.167968 21.167969 3.710938 6.898437 7.742188 13.621093 12.078126 20.152343 6.300781 9.507813 9.601562 20.859376 9.355468 32.257813zm0 0" fill="#ffbd86"/><path d="m158.183594 416.957031c-.003906-6.113281 1.078125-12.183593 3.210937-17.914062 2.339844-6.289063 4.675781-12.566407 6.859375-18.890625 1.902344-5.507813 2.9375-11.304688 3.0625-17.132813.246094-11.402343-3.046875-22.757812-9.359375-32.265625-5.03125-7.585937-9.65625-15.429687-13.847656-23.5l-14.753906-32.769531-31.554688-74.238281c-.273437-.640625-.574219-1.257813-.894531-1.863282-.050781-.09375-.097656-.191406-.148438-.285156-6.257812-11.488281-21.457031-15.886718-32.898437-9.78125-.394531.210938-.777344.429688-1.15625.65625-9.25 5.621094-12.640625 17.433594-8.410156 27.398438l42.398437 99.945312 9.871094 22.078125c6.765625 15.144531 9.222656 31.863281 7.09375 48.3125l-4.398438 71.316407 44.667969.484374zm0 0" fill="#f4c092"/><path d="m171.625 458.507812h-118.792969l.1875-28.285156c.039063-5.484375 4.515625-9.902344 10-9.863281l98.742188.660156c5.484375.039063 9.898437 4.511719 9.863281 9.996094zm0 0" fill="#fff5f5"/><path d="m171.625 431.015625v27.492187h-20.53125v-27.492187c.03125-5.480469-4.183594-9.960937-9.671875-9.992187h20.34375c5.480469.03125 9.902344 4.511718 9.859375 9.992187zm0 0" fill="#efe2dd"/><path d="m314.390625 511.996094v-52.691406l118.605469-.796876v53.488282zm0 0" fill="#e63950"/><path d="m314.390625 511.996094v-52.691406l118.605469-.796876v53.488282zm0 0" fill="#e63950"/><path d="m412.464844 458.640625h20.535156v53.359375h-20.535156zm0 0" fill="#cc2e43"/><path d="m485.265625 226.210938c.519531 10.890624-2.148437 21.699218-7.675781 31.097656l-62.984375 107.101562c-7.746094 13.171875-3.433594 37.8125-3.226563 53.121094.1875 13.707031.371094 27.414062.554688 41.117188l-84.371094-.140626.082031-41.554687c.003907-6.113281-1.078125-12.179687-3.210937-17.910156-2.339844-6.289063-4.675782-12.570313-6.859375-18.894531-1.902344-5.507813-2.9375-11.304688-3.0625-17.128907-.246094-11.402343 3.046875-22.757812 9.355469-32.261719 0 0 0-.003906.003906-.007812 8.664062-13.058594 16.113281-26.890625 22.246094-41.3125l37.910156-89.191406c4.785156-11.257813 17.042968-17.046875 28.535156-14.050782l6.875-118.757812c.921875-15.933594 14.289062-28.621094 30.234375-27.96875 15.300781.625 27.265625 12.78125 27.980469 27.722656l1.503906 31.402344zm0 0" fill="#fed2a4"/><path d="m327.644531 416.957031c.003907-6.113281-1.078125-12.183593-3.210937-17.914062-2.339844-6.289063-4.675782-12.566407-6.859375-18.890625-1.902344-5.507813-2.9375-11.304688-3.0625-17.132813-.246094-11.402343 3.046875-22.757812 9.359375-32.265625 5.03125-7.585937 9.65625-15.429687 13.847656-23.5l14.753906-32.769531 31.554688-74.238281c.273437-.640625.574218-1.257813.894531-1.863282.050781-.09375.097656-.191406.148437-.285156 6.257813-11.488281 21.457032-15.886718 32.898438-9.78125.394531.210938.777344.429688 1.15625.65625 9.25 5.621094 12.640625 17.433594 8.410156 27.398438l-42.398437 99.945312-9.871094 22.078125c-6.765625 15.144531-9.222656 31.863281-7.09375 48.3125l4.398437 70.53125-44.667968.484375zm0 0" fill="#f4c092"/><path d="m477.589844 257.308594-62.984375 107.097656c-7.75 13.179688-3.433594 37.8125-3.226563 53.121094.183594 13.714844.371094 27.417968.554688 41.125l-23.398438-.042969c-.1875-13.695313-.371094-27.378906-.554687-41.082031-.207031-15.308594-4.527344-39.941406 3.214843-53.121094l62.992188-107.097656c5.53125-9.398438 8.195312-20.203125 7.671875-31.101563l-6.105469-127.609375-1.503906-31.40625c-.542969-11.238281-7.441406-20.890625-17.34375-25.25 3.898438-1.757812 8.226562-2.65625 12.769531-2.46875 15.296875.628906 27.265625 12.78125 27.976563 27.71875l1.5 31.410156 6.105468 127.605469c.523438 10.898438-2.136718 21.703125-7.667968 31.101563zm0 0" fill="#ffbd86"/><path d="m314.390625 459.304688 118.414063-.796876v-28.285156c-.035157-5.484375-4.511719-9.902344-9.996094-9.863281l-98.742188.660156c-5.484375.039063-9.898437 4.511719-9.863281 9.996094zm0 0" fill="#fff5f5"/><path d="m432.996094 430.351562v28.28125h-20.53125v-28.28125c.03125-5.480468-4.183594-9.960937-9.675782-9.992187h20.347657c5.480469.03125 9.898437 4.511719 9.859375 9.992187zm0 0" fill="#efe2dd"/><path d="m368.421875 125.507812c0 69.316407-56.191406 125.511719-125.507813 125.511719-69.316406 0-125.507812-56.195312-125.507812-125.511719 0-69.316406 56.191406-125.507812 125.507812-125.507812 69.316407 0 125.507813 56.191406 125.507813 125.507812zm0 0" fill="#fff1af"/><path d="m368.425781 125.503906c0 66.199219-51.242187 120.410156-116.21875 125.160156 53.175781-14.566406 92.253907-63.238281 92.253907-121.046874 0-69.316407-56.195313-125.5-125.511719-125.5-3.125 0-6.230469.113281-9.292969.347656 10.585938-2.910156 21.742188-4.46093775 33.257812-4.46093775 69.316407 0 125.511719 56.18749975 125.511719 125.49999975zm0 0" fill="#ffea7e"/><path d="m323.621094 125.507812c0 44.574219-36.132813 80.707032-80.707032 80.707032-44.574218 0-80.707031-36.132813-80.707031-80.707032 0-44.570312 36.132813-80.703124 80.707031-80.703124 44.574219 0 80.707032 36.132812 80.707032 80.703124zm0 0" fill="#ffa812"/><path d="m259.261719 127.324219c-3.996094-3.601563-8.328125-6.09375-12.511719-8.507813-3.644531-2.097656-7.089844-4.082031-9.863281-6.582031-2.859375-2.574219-3.34375-6.464844-1.242188-9.914063 1.28125-2.089843 3.960938-3.5 7-3.679687 2.089844-.113281 4.753907 1.011719 6.476563 2.753906.746094.757813 1.621094 1.9375 1.527344 3.238281-.304688 4.246094 2.886718 7.9375 7.136718 8.246094 4.25.316406 7.9375-2.886718 8.246094-7.136718.398438-5.503907-1.710938-10.894532-5.933594-15.175782-2.644531-2.683594-5.953125-4.734375-9.472656-5.980468v-5.019532c0-4.257812-3.453125-7.710937-7.710938-7.710937-4.257812 0-7.710937 3.453125-7.710937 7.710937v4.914063c-5.351563 1.734375-9.886719 5.164062-12.71875 9.800781-5.972656 9.777344-4.292969 21.871094 4.082031 29.410156 3.984375 3.589844 8.304688 6.078125 12.484375 8.488282 3.652344 2.101562 7.105469 4.089843 9.894531 6.601562 2.855469 2.574219 3.34375 6.464844 1.238282 9.914062-1.28125 2.089844-3.960938 3.503907-6.996094 3.679688-2.089844.128906-4.757812-1.007812-6.480469-2.753906-.746093-.757813-1.621093-1.9375-1.527343-3.238282.308593-4.246093-2.886719-7.9375-7.132813-8.246093-4.25-.308594-7.941406 2.890625-8.246094 7.136719-.398437 5.503906 1.707031 10.894531 5.929688 15.175781 2.644531 2.683593 5.953125 4.730469 9.472656 5.980469v5.019531c0 4.261719 3.453125 7.710937 7.710937 7.710937 4.261719 0 7.710938-3.449218 7.710938-7.710937v-4.914063c5.351562-1.734375 9.886719-5.164062 12.71875-9.800781 5.972656-9.773437 4.292969-21.867187-4.082031-29.410156zm0 0" fill="#ffcd6b"/><path d="m323.621094 125.503906c0 44.578125-36.140625 80.707032-80.707032 80.707032-9.34375 0-18.3125-1.582032-26.660156-4.515626.894532.042969 1.789063.050782 2.695313.050782 44.566406 0 80.707031-36.125 80.707031-80.703125 0-35.234375-22.578125-65.191407-54.058594-76.195313 43.324219 1.410156 78.023438 36.984375 78.023438 80.65625zm0 0" fill="#ff9a00"/></svg>