<svg id="Layer_1_1_" enable-background="new 0 0 64 64" height="512" viewBox="0 0 64 64" width="512" xmlns="http://www.w3.org/2000/svg"><path d="m34 61h-26c-2.761 0-5-2.239-5-5v-48c0-2.761 2.239-5 5-5h26c2.761 0 5 2.239 5 5v48c0 2.761-2.239 5-5 5z" fill="#c9c7c2"/><path d="m33 57h-24c-1.105 0-2-.895-2-2v-46c0-1.105.895-2 2-2h24c1.105 0 2 .895 2 2v46c0 1.105-.895 2-2 2z" fill="#ffedba"/><path d="m39 10.691h-21.499c-.552 0-1 .448-1 1v22.618c0 .552.448 1 1 1h21.499z" fill="#b3b1ac" opacity=".35"/><path d="m15 5c0 1.105.895 2 2 2h8c1.105 0 2-.895 2-2s.895-2 2-2h-16c1.105 0 2 .895 2 2z" fill="#a19f9b"/><path d="m32 54h-20c-.552 0-1-.448-1-1v-14c0-.552.448-1 1-1h20c.552 0 1 .448 1 1v14c0 .552-.448 1-1 1z" fill="#b5b2aa"/><path d="m25 46c0 1.105.895 2 2 2h6v-4h-6c-1.105 0-2 .895-2 2z" fill="#8c8a84"/><path d="m19 12h42v22h-42z" fill="#fffcf5"/><circle cx="40" cy="23" fill="#ffd45a" r="11"/><g fill="#febe07"><path d="m56 34h5v-5c-2.761 0-5 2.239-5 5z"/><path d="m19 29v5h5c0-2.761-2.239-5-5-5z"/><path d="m24 12h-1-4v5c2.761 0 5-2.239 5-5z"/><path d="m61 17v-5h-5c0 2.761 2.239 5 5 5z"/><circle cx="40" cy="23" r="8"/></g><path d="m14 47v-9h-2c-.552 0-1 .448-1 1v14c0 .552.448 1 1 1h20c.552 0 1-.448 1-1v-2h-15c-2.209 0-4-1.791-4-4z" fill="#96948d"/><path d="m32.101 57.039c-13.261 0-24.572-8.329-29-20.039v19.039c0 2.761 2.239 5 5 5h26c2.419 0 4.436-1.718 4.899-4z" fill="#b3b1ac" opacity=".35"/><path d="m43 21v-1c0-.553-.448-1-1-1h-1v-1h-2v1h-1c-.552 0-1 .447-1 1v3c0 .553.448 1 1 1h3v1h-4v1c0 .553.448 1 1 1h1v1h2v-1h1c.552 0 1-.447 1-1v-3c0-.553-.448-1-1-1h-3v-1z" fill="#fffcf5"/></svg>