<svg height="512" viewBox="0 0 64 64" width="512" xmlns="http://www.w3.org/2000/svg"><g id="Finance-2" data-name="Finance"><path d="m53 9v42a2.006 2.006 0 0 1 -2 2h-46a2.006 2.006 0 0 1 -2-2v-42z" fill="#ffde55"/><path d="m51 9v10a32.094 32.094 0 0 1 -32 32h-16a2.006 2.006 0 0 0 2 2h46a2.006 2.006 0 0 0 2-2v-42z" fill="#e5c84d"/><path d="m35 57a4 4 0 0 0 4 4h18a4 4 0 0 0 4-4v-2h-26z" fill="#006df0"/><path d="m57 19h-18a4 4 0 0 0 -4 4v2h26v-2a4 4 0 0 0 -4-4z" fill="#006df0"/><path d="m53 5a2 2 0 0 0 -2-2h-46a2 2 0 0 0 -2 2v4h50z" fill="#006df0"/><circle cx="18" cy="40" fill="#ed1c24" r="9"/><path d="m35 25h26v30h-26z" fill="#9bc9ff"/><path d="m59 25v16a12 12 0 0 1 -12 12h-12v2h26v-30z" fill="#8cb5e5"/><circle cx="48" cy="40" fill="#ed1c24" r="9"/><path d="m48 31a8.935 8.935 0 0 0 -1 .059 9 9 0 0 1 0 17.882 9 9 0 1 0 1-17.941z" fill="#d51920"/><path d="m18 31a8.935 8.935 0 0 0 -1 .059 9 9 0 0 1 0 17.882 9 9 0 1 0 1-17.941z" fill="#d51920"/><g fill="#f1f2f2"><path d="m48 43c-1.221 0-2-.592-2-1a1 1 0 0 0 -2 0c0 1.421 1.259 2.571 3 2.9v1.1a1 1 0 0 0 2 0v-1.1c1.741-.327 3-1.477 3-2.9 0-1.682-1.757-3-4-3-1.221 0-2-.592-2-1s.779-1 2-1 2 .592 2 1a1 1 0 0 0 2 0c0-1.421-1.259-2.571-3-2.9v-1.1a1 1 0 0 0 -2 0v1.1c-1.741.327-3 1.477-3 2.9 0 1.682 1.757 3 4 3 1.221 0 2 .592 2 1s-.779 1-2 1z"/><path d="m18 37c1.221 0 2 .592 2 1a1 1 0 0 0 2 0c0-1.421-1.259-2.571-3-2.9v-1.1a1 1 0 0 0 -2 0v1.1c-1.741.327-3 1.477-3 2.9 0 1.682 1.757 3 4 3 1.221 0 2 .592 2 1s-.779 1-2 1-2-.592-2-1a1 1 0 0 0 -2 0c0 1.421 1.259 2.571 3 2.9v1.1a1 1 0 0 0 2 0v-1.1c1.741-.327 3-1.477 3-2.9 0-1.682-1.757-3-4-3-1.221 0-2-.592-2-1s.779-1 2-1z"/><path d="m49 23h2a1 1 0 0 0 0-2h-2a1 1 0 0 0 0 2z"/><path d="m45 23h1a1 1 0 0 0 0-2h-1a1 1 0 0 0 0 2z"/><path d="m6 5h2v2h-2z"/><path d="m10 5h2v2h-2z"/><path d="m14 5h2v2h-2z"/><path d="m50 57h-4a1 1 0 0 0 0 2h4a1 1 0 0 0 0-2z"/></g><path d="m35 40a1 1 0 0 0 -.293-.707l-4.95-4.95a1 1 0 1 0 -1.414 1.414l4.243 4.243-4.243 4.243a1 1 0 1 0 1.414 1.414l4.95-4.95a1 1 0 0 0 .293-.707z" fill="#006df0"/><path d="m37.586 40-4.243 4.243a1 1 0 1 0 1.414 1.414l4.95-4.95a1 1 0 0 0 0-1.414l-4.95-4.95a1 1 0 1 0 -1.414 1.414z" fill="#006df0"/><path d="m9 22h1a1 1 0 0 0 0-2h-1a1 1 0 0 0 0 2z" fill="#ff6243"/><path d="m14 22h17a1 1 0 0 0 0-2h-17a1 1 0 0 0 0 2z" fill="#ff6243"/><path d="m9 18h1a1 1 0 0 0 0-2h-1a1 1 0 0 0 0 2z" fill="#ff6243"/><path d="m14 18h17a1 1 0 0 0 0-2h-17a1 1 0 0 0 0 2z" fill="#ff6243"/><path d="m9 26h1a1 1 0 0 0 0-2h-1a1 1 0 0 0 0 2z" fill="#ff6243"/><path d="m14 26h17a1 1 0 0 0 0-2h-17a1 1 0 0 0 0 2z" fill="#ff6243"/></g></svg>