<svg id="Capa_1" enable-background="new 0 0 497 497" height="512" viewBox="0 0 497 497" width="512" xmlns="http://www.w3.org/2000/svg"><path d="m472.619 430.607v-260.785c0-12.965-10.511-23.476-23.476-23.476h-400.286c-12.965 0-23.476 10.51-23.476 23.476v260.786l222.889 40z" fill="#26a6fe"/><path d="m449.143 146.346h-30c12.965 0 23.476 10.51 23.476 23.476v260.786h30v-260.786c0-12.966-10.511-23.476-23.476-23.476z" fill="#0593fc"/><path d="m60.381 430.607v-235.987c0-7.331 5.943-13.274 13.274-13.274h349.69c7.331 0 13.274 5.943 13.274 13.274v235.987l-188.349 30z" fill="#fff3ef"/><path d="m423.345 181.346h-30c7.331 0 13.274 5.943 13.274 13.274v235.987h30v-235.987c0-7.331-5.943-13.274-13.274-13.274z" fill="#f1f0f0"/><path d="m481.946 480.441h-466.892c-8.314 0-15.054-6.74-15.054-15.054v-23.808c0-6.076 4.925-11.001 11.001-11.001h175.792l61.477 17 61.936-17h177.49c5.138 0 9.304 4.165 9.304 9.304v25.506c0 8.313-6.74 15.053-15.054 15.053z" fill="#0182fc"/><path d="m285.275 455.509h-73.55c-13.769 0-24.932-11.162-24.932-24.931h123.413c.001 13.769-11.162 24.931-24.931 24.931z" fill="#0055a3"/><ellipse cx="165.039" cy="365.172" fill="#fc9086" rx="23.983" ry="23.983" transform="matrix(.23 -.973 .973 .23 -228.283 441.897)"/><ellipse cx="165.039" cy="365.172" fill="#00f2a6" rx="23.983" ry="23.983" transform="matrix(.23 -.973 .973 .23 -228.283 441.897)"/><ellipse cx="249" cy="365.172" fill="#fc9086" rx="23.983" ry="23.983" transform="matrix(.16 -.987 .987 .16 -151.343 552.463)"/><ellipse cx="249" cy="365.172" fill="#fee45a" rx="23.983" ry="23.983" transform="matrix(.16 -.987 .987 .16 -151.343 552.463)"/><ellipse cx="332.961" cy="365.172" fill="#fc9086" rx="23.983" ry="23.983" transform="matrix(.707 -.707 .707 .707 -160.694 342.396)"/><ellipse cx="332.961" cy="365.172" fill="#fd6930" rx="23.983" ry="23.983" transform="matrix(.707 -.707 .707 .707 -160.694 342.396)"/><path d="m340.165 136.305.19-27.869c0-50.742-41.134-91.877-91.877-91.877-50.742 0-91.877 41.135-91.877 91.877l-.19 27.869z" fill="#537983"/><path d="m340.218 248.607-6.965-13.285 12.45-6.526c2.501-1.311 3.89-4.067 3.456-6.858l-6.285-40.403 14.822-2.306 6.285 40.404c1.42 9.135-3.127 18.156-11.314 22.449z" fill="#678d98"/><path d="m248.479 16.559c-5.109 0-10.118.424-15 1.226 43.606 7.162 76.876 45.018 76.876 90.651l-.19 27.869h30l.19-27.869c0-50.742-41.134-91.877-91.876-91.877z" fill="#3e5959"/><circle cx="344.643" cy="161.533" fill="#7ca1b1" r="27.942"/><circle cx="152.357" cy="161.533" fill="#7ca1b1" r="27.942"/><path d="m156.602 111.641-.417 61.118c0 50.742 41.135 91.877 91.877 91.877 50.742 0 91.877-41.135 91.877-91.877l.418-61.107c-.003-.004-.005-.007-.007-.01-20.319-7.063-38.408-19.376-52.43-35.69-.598-.695-1.592-.895-2.411-.484l-5.562 2.786c-31.325 15.689-65.078 25.965-99.832 30.393z" fill="#fed2a4"/><path d="m340.349 111.641c-20.315-7.061-38.401-19.371-52.422-35.68-.602-.7-1.595-.908-2.42-.495l-5.562 2.786c-4.523 2.266-9.103 4.405-13.723 6.443 10.362 9.885 22.391 17.873 35.538 23.59 5.232 2.275 8.563 7.491 8.525 13.197-.115 17.283-.345 51.276-.345 51.276 0 45.633-33.271 83.489-76.877 90.651 4.882.802 9.891 1.226 15 1.226 50.742 0 91.877-41.134 91.877-91.877l.418-61.107c-.005-.003-.007-.006-.009-.01z" fill="#ffbd86"/><path d="m204.644 192.317c-4.143 0-7.5-3.358-7.5-7.5v-6.58c0-4.142 3.357-7.5 7.5-7.5s7.5 3.358 7.5 7.5v6.58c0 4.142-3.358 7.5-7.5 7.5z" fill="#384949"/><path d="m287.696 192.317c-4.143 0-7.5-3.358-7.5-7.5v-6.58c0-4.142 3.357-7.5 7.5-7.5s7.5 3.358 7.5 7.5v6.58c0 4.142-3.357 7.5-7.5 7.5z" fill="#384949"/><path d="m248.377 220.468c-7.003 0-13.472-3.802-16.882-9.922-2.016-3.618-.717-8.186 2.901-10.202 3.616-2.016 8.186-.717 10.202 2.901.764 1.372 2.212 2.224 3.778 2.224 1.57 0 3.021-.856 3.784-2.234 2.007-3.622 6.572-4.932 10.195-2.923 3.623 2.008 4.932 6.573 2.924 10.196-3.405 6.142-9.881 9.96-16.902 9.96z" fill="#ffbd86"/><path d="m188.591 164.231c-1.663 0-3.337-.55-4.728-1.682-3.213-2.613-3.699-7.337-1.086-10.551 5.882-7.232 14.933-11.055 24.208-10.232 4.126.367 7.173 4.009 6.807 8.135-.367 4.126-4.006 7.174-8.135 6.807-4.309-.387-8.51 1.395-11.243 4.756-1.482 1.822-3.644 2.767-5.823 2.767z" fill="#537983"/><path d="m308.165 164.231c-2.18 0-4.341-.945-5.823-2.768-2.734-3.361-6.938-5.145-11.243-4.756-4.122.368-7.768-2.681-8.135-6.807-.366-4.125 2.681-7.768 6.807-8.135 9.278-.824 18.326 3.001 24.208 10.232 2.613 3.213 2.127 7.938-1.086 10.551-1.391 1.133-3.065 1.683-4.728 1.683z" fill="#537983"/><circle cx="319.633" cy="246.872" fill="#7ca1b1" r="21.613"/><path d="m302.006 311.636h-107.012c-4.143 0-7.5-3.358-7.5-7.5s3.357-7.5 7.5-7.5h107.012c4.143 0 7.5 3.358 7.5 7.5s-3.358 7.5-7.5 7.5z" fill="#60b7ff"/></svg>